<?xml version="1.0" encoding="utf-8"?>
<!-- Generator: Adobe Illustrator 25.0.0, SVG Export Plug-In . SVG Version: 6.00 Build 0)  -->
<svg version="1.1" id="Layer_1" xmlns="http://www.w3.org/2000/svg" xmlns:xlink="http://www.w3.org/1999/xlink" x="0px" y="0px"
	 viewBox="0 0 267.4 85" style="enable-background:new 0 0 267.4 85;" xml:space="preserve">
<style type="text/css">
	.st0{fill:#FFFFFF;}
</style>
<g>
	<path class="st0" d="M15.8,38.6C17.5,19.7,34,1.9,56.5,1.8c22.7-0.1,39.5,17.6,41.2,36.8c-10.3-13.5-23.8-21-40.9-21
		C39.6,17.5,26.1,25,15.8,38.6z M85.7,16.7c0.1,0.4,0.4,0.5,0.7,0.8C86.3,17,86.1,16.7,85.7,16.7c0.1-0.5-0.2-0.6-0.5-0.9
		c-1.1-1.1-2.2-2.3-3.4-3.3c-2.9-2.5-6.1-4.5-9.6-6c-5.8-2.5-11.8-3.6-18.1-3.1c-2.8,0.2-5.5,0.7-8.1,1.4c-6.9,2-12.8,5.7-17.7,11
		c-0.2,0.2-0.5,0.4-0.5,0.7c-0.4,0.1-0.5,0.5-0.9,0.8c0.6,0,0.7-0.4,0.9-0.7c0.3-0.1,0.5-0.3,0.7-0.5c0.7-0.7,1.4-1.4,2.1-2
		c3.1-2.6,6.4-4.7,10.1-6.3c4.5-2,9.2-3.1,14-3.3c1.7-0.1,3.5-0.1,5.2,0.1c2.3,0.2,4.5,0.5,6.7,1.1c6.5,1.7,12.3,4.8,17.2,9.3
		C84.4,15.5,84.9,16.3,85.7,16.7z"/>
	<path class="st0" d="M88,69.8c-1.3,1.7-2.8,3.1-4.4,4.4c-4.1,3.4-8.6,6-13.7,7.7c-2.9,0.9-5.8,1.6-8.8,1.9
		c-1.5,0.2-2.9,0.2-4.4,0.2c-3,0-6-0.3-9-1c-7.7-1.7-14.4-5.3-20-10.8c-0.2-0.2-0.4-0.4-0.5-0.6c0,0,0-0.1,0-0.2
		c1.4,0.1,2.5,0.6,3.5,1.8c1.1-2.1,2.7-3.5,5.2-3.5c2.4,0,4.1,1.3,5.2,3.4c1.5-1.7,3.3-2.2,5.4-1.4c0.3-2.2,1.3-3.9,3.3-4.8
		s4-0.5,5.9,0.9c0.9-3.7,3-5.9,6.8-6c3.4-0.1,5.6,1.8,6.8,4.9c1.8-0.9,3.5-1.1,5.3-0.2s2.8,2.3,3.1,4.3c3.2-0.9,4.7-0.4,6.4,2.1
		C85,71.3,86.1,70,88,69.8C88,69.8,88,69.8,88,69.8z"/>
	<path class="st0" d="M64.5,44.1c0,2.5-0.9,4.6-2.7,6.3c-2.9,2.7-7.2,2.7-10.1,0.1c-3.5-3.2-3.7-8.8-0.4-12.3
		c3.6-3.8,9.6-3,12.2,1.6C64.1,41.2,64.5,42.6,64.5,44.1z M56.8,45.1c-1.2,0-2.3,1.1-2.3,2.3c0,1.3,1.1,2.4,2.4,2.3s2.3-1.1,2.3-2.4
		C59.1,46.2,58,45.1,56.8,45.1z M53.8,40.7c-0.5,0.5-1,1.2-1.6,1.8c3,0,5.9,0,9,0c-0.7-0.7-1.3-1.2-1.8-1.8
		C57.6,40.7,55.8,40.7,53.8,40.7z M49.7,44c0.3-0.9,0.4-1.8,0.7-2.7c0.4-0.8,0.8-1.6,1.5-2.3c0.6-0.7,1.3-1.2,2.1-1.7
		C52,37.7,49.3,40.8,49.7,44z"/>
	<path class="st0" d="M48,45.3c0.2,0.9,0.4,1.8,0.7,2.6c0.3,0.8,0.8,1.5,1.4,2.3c-1,0-1.9-0.3-2.8-0.4c-4.5-0.8-9-1.6-13.4-2.4
		c-0.3-0.1-0.6-0.1-0.8-0.4c-1.7-2.1-4.9-2.9-7.8-1c-7.6-1.1-15.3-2.3-23-3.4c-0.1,0-0.2-0.1-0.3-0.2c-0.2-0.3-0.1-0.6-0.1-0.8
		c0-0.3,0.2-0.5,0.6-0.5c0.2,0,0.3,0,0.5,0c2.4,0.2,4.8,0.5,7.3,0.8c2.5,0.3,5,0.5,7.5,0.8c3.1,0.3,6.2,0.7,9.4,1
		c2.5,0.2,4.9,0.4,7.4,0.6c4,0.3,7.9,0.7,11.9,1C46.9,45.2,47.4,45.3,48,45.3z"/>
	<path class="st0" d="M111.6,42.3c-0.2,0.3-0.5,0.3-0.8,0.4c-4.8,0.7-9.6,1.4-14.4,2.1c-2.7,0.4-5.3,0.8-8.1,1.2
		c-0.6-0.3-1.1-0.7-1.8-0.8c-2.2-0.5-4.1,0-5.7,1.6c-0.4,0.4-0.8,0.6-1.3,0.7c-5.1,0.9-10.2,1.8-15.3,2.7c-0.2,0-0.4,0.1-0.7,0
		c1.1-1.4,1.7-3,2-4.8c1.6-0.1,3.1-0.3,4.7-0.4c4.7-0.4,9.4-0.8,14.1-1.2c4.4-0.4,8.9-0.9,13.3-1.3c4.2-0.4,8.4-0.9,12.6-1.3
		c0.1,0,0.2,0,0.3,0C111.6,41,111.7,41.1,111.6,42.3z"/>
	<path class="st0" d="M110.5,47.2c-1.6,1.2-3,2.3-4.5,3.3c-4.2,2.9-8.6,5.5-13.3,7.5c-3.8,1.7-7.7,3-11.8,3.6
		c-5,0.8-9.9,0.6-14.8-1.2c-2.2-0.8-4.6-2.1-6.5-3.7c0.3-0.2,0.6,0.1,0.8,0.2c3.1,2,6.4,3.2,10.1,3.6c3.8,0.5,7.6,0.1,11.3-0.8
		c5-1.3,9.7-3.5,14.1-6.1c3-1.8,5.9-3.8,8.7-6c0.5-0.4,0.9-0.5,1.5-0.5C107.5,47.2,108.9,47.2,110.5,47.2z"/>
	<path class="st0" d="M53.8,56.8c-0.9,0.8-1.9,1.5-3,2c-3.1,1.7-6.4,2.7-9.9,3c-4.4,0.4-8.7-0.1-13-1.3c-6.2-1.7-11.9-4.6-17.3-8
		c-2.5-1.6-4.9-3.2-7.2-5c-0.1-0.1-0.3-0.1-0.3-0.4c1.6,0,3.2,0,4.7,0c0.4,0,0.6,0.3,0.9,0.5c2.3,1.8,4.6,3.5,7,5
		c5.1,3.3,10.5,5.9,16.5,7.3c3.3,0.8,6.6,1.1,10,0.8c3.9-0.4,7.6-1.6,10.8-3.8C53.3,56.9,53.4,56.7,53.8,56.8z"/>
	<path class="st0" d="M90.3,50.8c0,3-2.5,5.4-5.4,5.3c-2.9,0-5.3-2.4-5.3-5.4c0-3,2.4-5.4,5.4-5.4C87.9,45.4,90.3,47.8,90.3,50.8z
		 M87.4,50.7c0-1.4-1.2-2.6-2.7-2.6c-1.4,0-2.6,1.2-2.6,2.7c0,1.4,1.2,2.6,2.7,2.6C86.2,53.4,87.4,52.1,87.4,50.7z"/>
	<path class="st0" d="M28.6,45.4c3,0,5.3,2.4,5.3,5.4c0,2.9-2.5,5.3-5.4,5.3c-3,0-5.4-2.4-5.4-5.4C23.2,47.7,25.6,45.4,28.6,45.4z
		 M28.7,48.1c-1.4,0-2.6,1.2-2.6,2.6c0,1.4,1.2,2.6,2.6,2.6c1.5,0,2.6-1.2,2.6-2.6C31.3,49.3,30.1,48.1,28.7,48.1z"/>
	<path class="st0" d="M48.2,41.8c0.1,0.3,0,0.6-0.2,0.9c-1.4-0.1-2.8-0.3-4.2-0.4c-3.2-0.3-6.4-0.7-9.5-1c-0.2,0-0.3,0-0.5-0.1
		c-0.3-0.1-0.5-0.2-0.4-0.5c0.1-0.3,0.3-0.4,0.6-0.4c0,0,0.1,0,0.1,0c4.7,0.5,9.3,1,13.9,1.5C48,41.7,48.1,41.7,48.2,41.8z"/>
	<path class="st0" d="M65.4,42.6c-0.2-0.2-0.2-0.5-0.2-0.8c0.8-0.2,1.7-0.2,2.5-0.3c3.9-0.4,7.8-0.8,11.7-1.2c0.4,0,0.7,0,0.7,0.4
		c0,0.4-0.3,0.5-0.6,0.5c-1.7,0.2-3.4,0.4-5.1,0.5c-2.8,0.3-5.6,0.6-8.3,0.9C65.9,42.6,65.7,42.6,65.4,42.6z"/>
	<path class="st0" d="M56.5,22.6C57,22.5,57,22.7,57,23c0,1,0.1,2,0.1,3c0,2.9,0,5.8,0,8.7c-0.1,0.2-0.3,0.1-0.6,0.1
		C56.4,30.7,56.4,26.7,56.5,22.6z"/>
	<path class="st0" d="M87.9,69.7c0-0.1,0.1-0.1,0.2,0C88.1,69.7,88,69.8,87.9,69.7C88,69.8,88,69.8,87.9,69.7z"/>
</g>
<g>
	<path class="st0" d="M123.6,35.4V10.6h4.8v24.8H123.6z"/>
	<path class="st0" d="M148.9,35.4L139,20.2v15.2h-4.8V10.6h4.3l9.8,15.2V10.6h4.8v24.8H148.9z"/>
	<path class="st0" d="M168.4,14.9v20.5h-4.8V14.9h-6.5v-4.3h17.8v4.3H168.4z"/>
	<path class="st0" d="M178.8,35.4V10.6h16.3v4.3h-11.5v5.8h9.8v4.3h-9.8v6h11.5v4.3H178.8z"/>
	<path class="st0" d="M213,35.4l-4.8-9.9h-3.5v9.9h-4.8V10.6h9.7c1.3,0,2.4,0.2,3.4,0.6c1,0.4,1.8,1,2.5,1.6
		c0.7,0.7,1.2,1.5,1.6,2.4c0.4,0.9,0.5,1.9,0.5,2.9c0,0.9-0.1,1.7-0.4,2.4c-0.2,0.7-0.6,1.3-1,1.9c-0.4,0.5-0.9,1-1.4,1.4
		c-0.5,0.4-1.1,0.7-1.7,0.9l5.5,10.7H213z M211.8,15.8c-0.6-0.6-1.5-0.9-2.6-0.9h-4.6v6.5h4.6c1.1,0,1.9-0.3,2.6-0.9
		c0.6-0.6,1-1.4,1-2.4C212.8,17.2,212.4,16.4,211.8,15.8z"/>
	<path class="st0" d="M133.1,56.7v20.5h-4.8V56.7h-6.5v-4.3h17.8v4.3H133.1z"/>
	<path class="st0" d="M156.6,77.1l-4.8-9.9h-3.5v9.9h-4.8V52.4h9.7c1.3,0,2.4,0.2,3.4,0.6c1,0.4,1.8,1,2.5,1.6s1.2,1.5,1.6,2.4
		c0.4,0.9,0.5,1.9,0.5,2.9c0,0.9-0.1,1.7-0.4,2.4c-0.2,0.7-0.6,1.3-1,1.9c-0.4,0.5-0.9,1-1.4,1.4c-0.5,0.4-1.1,0.7-1.7,0.9l5.5,10.7
		H156.6z M155.4,57.6c-0.6-0.6-1.5-0.9-2.6-0.9h-4.6v6.5h4.6c1.1,0,1.9-0.3,2.6-0.9c0.6-0.6,1-1.4,1-2.4
		C156.4,59,156,58.2,155.4,57.6z"/>
	<path class="st0" d="M180.3,77.1l-1.5-4.4H170l-1.5,4.4h-5l9-24.8h3.8l9,24.8H180.3z M174.5,59.7l-3.1,9h6.2L174.5,59.7z"/>
	<path class="st0" d="M196.2,77.1h-3.6l-8.2-24.8h5l5,16.1l5-16.1h5L196.2,77.1z"/>
	<path class="st0" d="M207.4,77.1V52.4h16.3v4.3h-11.5v5.8h9.8v4.3h-9.8v6h11.5v4.3H207.4z"/>
	<path class="st0" d="M228.4,77.1V52.4h4.8v20.5h11.2v4.3H228.4z"/>
	<path class="st0" d="M263.7,73c-0.5,0.9-1.1,1.7-1.9,2.3c-0.8,0.6-1.8,1.1-2.9,1.5c-1.1,0.3-2.3,0.5-3.6,0.5c-1.9,0-3.6-0.2-5-0.7
		c-1.5-0.5-2.8-1.3-4-2.6l3.1-3.1c0.8,0.8,1.7,1.3,2.7,1.6c1,0.3,2.1,0.5,3.3,0.5c1.4,0,2.5-0.3,3.3-0.8c0.7-0.5,1.1-1.3,1.1-2.3
		c0-0.9-0.3-1.6-0.8-2.1c-0.3-0.2-0.5-0.4-0.9-0.5c-0.3-0.1-0.8-0.2-1.3-0.3l-3-0.4c-2.1-0.3-3.7-1-4.8-2.1
		c-1.2-1.2-1.8-2.8-1.8-4.9c0-1.1,0.2-2.1,0.6-3c0.4-0.9,1-1.7,1.7-2.4c0.7-0.7,1.6-1.2,2.7-1.5c1.1-0.4,2.3-0.6,3.6-0.6
		c1.7,0,3.2,0.2,4.5,0.7c1.3,0.4,2.4,1.2,3.5,2.2l-3.1,3c-0.8-0.7-1.6-1.2-2.5-1.4s-1.7-0.3-2.6-0.3c-1.3,0-2.3,0.3-2.9,0.9
		c-0.6,0.6-0.9,1.4-0.9,2.2c0,0.3,0.1,0.6,0.2,0.9c0.1,0.3,0.3,0.6,0.6,0.8c0.3,0.2,0.6,0.4,1,0.6c0.4,0.2,0.8,0.3,1.3,0.4l2.9,0.4
		c1.1,0.2,2.1,0.4,2.8,0.7c0.7,0.3,1.4,0.7,1.9,1.2c0.7,0.6,1.2,1.4,1.5,2.3c0.3,0.9,0.5,1.9,0.5,3C264.4,71,264.2,72.1,263.7,73z"
		/>
</g>
</svg>
